<?xml version="1.0" standalone="no"?>
<!DOCTYPE svg PUBLIC "-//W3C//DTD SVG 20010904//EN"
 "http://www.w3.org/TR/2001/REC-SVG-20010904/DTD/svg10.dtd">
<svg version="1.0" xmlns="http://www.w3.org/2000/svg"
 width="300.000000pt" height="300.000000pt" viewBox="0 0 300.000000 300.000000"
 preserveAspectRatio="xMidYMid meet">
<metadata>
Created by potrace 1.11, written by Peter Selinger 2001-2013
</metadata>
<g transform="translate(0.000000,300.000000) scale(0.100000,-0.100000)"
fill="#000000" stroke="none">
<path d="M226 2903 c-3 -4 -6 -11 -6 -17 0 -6 5 -4 10 4 6 9 10 10 10 3 0 -21
-21 -25 -35 -7 -13 18 -13 18 -12 -1 1 -11 7 -24 12 -28 6 -5 0 -5 -12 -2 -19
5 -22 3 -16 -12 5 -13 1 -12 -13 5 -22 26 -57 22 -47 -5 4 -10 2 -14 -5 -9 -6
3 -14 1 -18 -5 -4 -7 -3 -9 3 -6 6 4 13 0 17 -8 3 -8 0 -17 -6 -21 -7 -5 -8
-2 -3 6 6 9 4 11 -4 6 -9 -6 -8 -13 6 -29 10 -12 12 -17 4 -12 -11 6 -13 4 -8
-9 5 -11 3 -15 -5 -10 -7 5 -9 2 -5 -9 4 -12 1 -15 -14 -12 -12 3 -17 0 -13
-7 5 -8 1 -9 -11 -4 -15 5 -16 4 -5 -9 10 -12 10 -15 -3 -15 -9 0 -18 -4 -22
-9 -3 -6 5 -8 17 -6 19 4 21 2 8 -8 -17 -14 -24 -37 -11 -37 5 0 11 -9 14 -21
4 -16 2 -19 -11 -14 -14 5 -14 4 1 -13 9 -10 14 -22 11 -25 -4 -4 -1 -14 7
-24 8 -9 9 -14 3 -10 -7 4 -17 0 -24 -8 -11 -13 -10 -14 5 -9 14 6 16 4 10 -6
-12 -19 -13 -60 -1 -67 5 -4 6 -1 1 7 -5 8 -4 11 3 6 6 -4 9 -13 6 -21 -4 -8
-9 -13 -13 -10 -4 2 -8 -2 -8 -10 0 -8 4 -12 8 -9 4 2 5 -12 2 -32 -5 -28 -3
-35 6 -29 10 6 11 3 2 -14 -7 -11 -8 -21 -2 -21 5 0 12 -7 15 -16 5 -14 4 -15
-9 -4 -13 11 -14 10 -9 -5 6 -14 4 -16 -7 -10 -11 7 -12 6 -2 -6 7 -9 11 -25
8 -38 -2 -13 0 -19 7 -15 6 4 8 -1 3 -15 -3 -12 -3 -20 2 -19 4 2 8 -1 8 -7 0
-5 -5 -9 -11 -9 -6 1 -11 -5 -11 -13 0 -9 7 -11 20 -7 17 5 18 4 6 -9 -8 -8
-18 -13 -24 -10 -5 2 1 -5 14 -16 13 -12 18 -21 12 -21 -17 0 -13 -21 7 -36
14 -12 15 -13 1 -8 -10 3 -20 0 -24 -6 -10 -16 14 -40 33 -33 13 4 12 2 -3
-10 -15 -11 -22 -12 -28 -4 -6 8 -7 5 -3 -6 3 -10 6 -21 6 -24 0 -3 7 0 15 7
13 11 14 10 9 -4 -3 -9 -11 -16 -18 -16 -6 0 -5 -4 4 -9 8 -6 17 -8 20 -6 3 2
6 -7 6 -20 0 -19 -3 -22 -13 -13 -8 6 -16 8 -20 4 -3 -3 -1 -6 5 -6 7 0 12
-14 12 -31 0 -21 -4 -28 -12 -23 -10 6 -10 4 -1 -7 7 -7 13 -24 13 -37 0 -13
4 -21 9 -17 6 3 8 -4 5 -17 -7 -30 -7 -38 -1 -71 3 -16 2 -25 -4 -22 -5 4 -9
1 -9 -4 0 -6 5 -11 11 -11 8 0 8 -5 -1 -15 -9 -11 -9 -15 -1 -15 9 0 9 -5 0
-21 -9 -17 -8 -20 2 -14 9 6 10 3 6 -10 -4 -9 -2 -24 5 -32 9 -11 9 -13 -2
-11 -7 2 -15 -3 -18 -11 -3 -10 0 -12 14 -7 17 6 17 6 1 -12 -16 -17 -15 -19
1 -36 9 -11 12 -16 5 -12 -6 3 -14 2 -18 -4 -3 -5 -1 -10 6 -10 8 0 8 -4 -1
-15 -10 -12 -10 -15 1 -15 11 0 11 -2 -1 -10 -10 -6 -11 -10 -2 -10 6 0 12 -5
12 -11 0 -5 -6 -7 -12 -3 -8 5 -7 0 2 -11 8 -10 10 -16 4 -12 -7 4 -14 0 -17
-8 -4 -8 -1 -12 6 -9 8 3 12 -6 12 -25 1 -21 -3 -28 -15 -24 -11 4 -11 1 3
-10 24 -20 22 -30 -4 -17 -20 11 -20 11 -2 -16 15 -24 15 -27 2 -22 -10 4 -16
1 -16 -8 0 -9 6 -13 14 -10 8 3 12 2 8 -3 -3 -5 -2 -11 2 -14 5 -2 2 -2 -6 0
-11 3 -12 1 -1 -12 7 -8 9 -15 5 -15 -4 0 -1 -8 6 -17 13 -16 12 -17 -3 -4
-10 7 -16 17 -13 20 2 4 -3 8 -11 8 -10 0 -11 -4 -4 -11 13 -13 13 -29 0 -21
-6 3 -7 -1 -3 -10 5 -14 8 -14 15 -3 6 9 7 5 3 -11 -5 -17 -4 -22 5 -16 9 5
11 4 6 -4 -6 -9 -11 -9 -22 0 -12 10 -13 9 -8 -5 4 -10 1 -16 -7 -16 -9 0 -10
-3 -4 -8 9 -6 12 -16 18 -57 1 -5 7 -14 12 -18 6 -5 3 -7 -8 -3 -9 3 -18 1
-18 -4 -5 -39 -4 -57 5 -69 8 -11 8 -13 -1 -7 -7 4 -13 2 -13 -3 0 -6 5 -11
12 -11 6 0 3 -6 -8 -14 -18 -14 -18 -15 -2 -21 14 -5 15 -11 8 -25 -13 -25
-13 -77 0 -85 8 -5 7 -11 -1 -21 -6 -7 -9 -20 -6 -28 4 -10 1 -13 -9 -9 -14 5
-14 3 -3 -15 11 -17 10 -23 -2 -38 -8 -10 -9 -15 -3 -11 7 4 15 0 18 -9 3 -8
2 -12 -4 -9 -6 3 -10 1 -10 -5 0 -6 -5 -8 -12 -4 -7 4 -8 3 -4 -5 4 -6 11 -9
16 -6 4 3 10 -2 13 -10 4 -10 1 -12 -11 -8 -14 6 -15 4 -4 -9 10 -13 10 -18 1
-24 -8 -5 -9 -3 -4 6 6 9 4 11 -5 5 -10 -6 -8 -13 11 -28 22 -18 22 -19 3 -13
-14 4 -26 1 -35 -11 -13 -16 -12 -17 3 -4 13 9 18 10 18 2 0 -7 5 -9 10 -6 6
3 10 1 10 -5 0 -7 -7 -10 -15 -7 -21 9 -29 -11 -30 -78 -2 -58 0 -61 39 -96
23 -22 46 -35 54 -31 11 4 13 1 7 -7 -6 -10 -3 -11 13 -2 14 7 23 8 27 1 4 -6
11 -7 17 -4 7 4 8 2 4 -5 -6 -8 -12 -9 -20 -2 -9 8 -13 7 -13 -3 0 -8 8 -13
17 -11 9 2 23 -1 31 -6 11 -7 10 -9 -6 -10 l-20 0 20 -9 c14 -6 15 -9 5 -10
-9 -1 -6 -5 7 -10 15 -6 21 -15 17 -25 -3 -8 -11 -12 -17 -8 -6 3 -7 1 -3 -6
6 -9 11 -9 22 0 12 10 13 9 9 -4 -4 -8 -1 -18 6 -23 8 -5 10 -3 4 7 -6 11 -5
12 5 2 11 -10 11 -15 -1 -30 -13 -16 -12 -17 4 -4 16 12 22 9 18 -12 -1 -5 3
-6 9 -2 6 3 8 11 5 16 -4 5 -2 9 4 9 5 0 15 -8 20 -17 6 -10 11 -13 11 -6 0 6
9 10 20 8 12 -2 18 0 15 6 -4 5 -11 7 -16 4 -5 -3 -6 1 -2 10 5 13 7 14 14 3
7 -11 11 -10 19 2 7 11 10 11 10 2 0 -7 4 -11 9 -7 5 3 12 1 16 -4 3 -6 -3 -8
-15 -6 -11 2 -20 0 -20 -6 0 -5 10 -7 23 -5 12 3 25 5 29 5 4 1 4 9 1 18 -6
15 -5 16 9 3 9 -8 13 -19 10 -24 -3 -5 0 -6 7 -2 7 5 10 14 7 22 -3 8 -1 14 4
14 6 0 10 -8 10 -17 0 -15 2 -14 16 3 8 10 13 13 9 6 -4 -7 0 -12 10 -12 12 0
15 5 11 16 -5 14 -4 15 9 4 8 -7 12 -17 9 -22 -4 -6 6 -2 22 7 19 11 23 12 11
2 -12 -10 -14 -17 -8 -22 6 -3 11 -1 11 4 0 6 7 11 16 11 9 0 12 5 8 13 -6 8
-3 8 9 -1 9 -8 31 -15 48 -16 26 -2 29 0 15 10 -15 10 -15 12 -1 18 9 3 14 2
11 -3 -3 -5 0 -11 7 -14 20 -7 27 -7 25 1 -2 4 -7 6 -11 4 -5 -1 -6 2 -2 8 3
6 11 8 16 4 5 -3 18 0 27 7 14 11 15 11 4 -1 -16 -18 -15 -27 3 -27 8 0 12 4
9 9 -3 4 1 8 8 9 7 0 25 2 40 3 23 1 25 -1 15 -14 -9 -11 -7 -11 8 2 27 22 83
29 71 9 -7 -10 6 -9 42 3 12 4 20 11 17 16 -3 5 -1 11 4 14 11 7 9 -13 -3 -32
-7 -11 -4 -12 13 -3 11 7 21 8 21 4 0 -4 4 -3 8 2 4 6 18 19 32 30 21 17 23
17 10 2 -12 -16 -12 -18 1 -16 7 2 25 -3 39 -11 23 -12 24 -12 11 4 -8 9 -11
19 -7 23 3 3 6 1 6 -5 0 -7 7 -12 15 -12 8 0 15 5 15 12 0 6 3 8 6 5 4 -4 2
-13 -5 -20 -9 -11 -7 -17 6 -28 16 -12 17 -12 7 1 -9 12 -9 18 2 28 12 11 14
10 14 -3 0 -8 4 -15 10 -15 5 0 7 7 4 15 -5 11 -2 13 10 9 9 -3 13 -11 9 -17
-4 -6 7 -1 24 11 23 16 34 19 39 11 4 -7 3 -9 -3 -6 -5 3 -10 0 -10 -7 0 -7 6
-13 13 -13 7 0 11 3 9 7 -3 4 5 16 17 26 21 19 21 19 10 -1 -9 -19 -7 -20 33
-20 24 0 41 3 39 7 -2 4 0 9 6 13 5 3 10 2 10 -2 0 -5 13 -9 30 -9 20 -1 27 2
23 10 -5 8 -3 8 8 0 21 -16 51 -26 44 -14 -9 14 9 12 24 -2 10 -11 11 -9 5 7
-7 18 -6 19 10 5 18 -14 108 -22 99 -8 -2 5 -8 6 -13 3 -5 -3 -11 -2 -14 3 -2
4 8 8 24 7 15 0 27 -2 25 -5 -2 -4 5 -11 15 -17 15 -10 17 -9 13 10 -3 16 -2
18 5 8 8 -10 14 -11 32 -1 12 7 20 8 17 2 -4 -5 5 -14 20 -21 24 -11 25 -11
12 5 -13 16 -12 16 9 5 12 -7 20 -16 17 -21 -3 -6 1 -7 9 -4 9 3 16 10 16 16
0 5 -4 7 -8 4 -5 -3 -9 2 -9 11 0 12 4 11 18 -6 13 -16 25 -21 39 -16 11 4 18
11 15 16 -4 5 -1 9 4 9 15 0 14 -13 -1 -29 -11 -10 -9 -11 6 -5 15 6 17 4 11
-7 -6 -11 -5 -12 6 -1 17 15 69 16 69 0 0 -6 3 -8 6 -5 4 4 1 14 -7 23 -13 16
-12 16 8 4 12 -8 21 -16 20 -19 -1 -4 3 -6 8 -6 6 0 9 6 9 12 -1 7 2 13 7 13
5 0 9 -8 9 -17 0 -15 2 -16 10 -3 6 10 10 11 10 3 0 -7 5 -13 11 -13 5 0 7 5
4 10 -3 6 -1 10 4 10 6 0 11 -6 11 -12 0 -10 2 -10 9 0 7 11 9 11 14 -1 3 -8
17 -13 34 -12 15 1 36 -2 47 -8 13 -6 16 -6 12 2 -4 6 0 11 9 11 10 0 13 -5 9
-12 -5 -9 -2 -9 9 1 14 11 20 11 33 0 15 -12 16 -11 10 11 -5 17 -4 21 2 11 6
-8 19 -12 31 -8 12 3 24 0 28 -5 3 -6 2 -8 -3 -5 -6 3 -16 2 -23 -3 -9 -5 -2
-7 18 -6 21 0 30 5 26 14 -3 8 0 10 6 6 6 -4 15 -1 19 6 6 9 10 7 15 -9 3 -11
11 -21 16 -21 6 0 8 4 5 9 -3 5 2 15 12 22 16 13 16 13 2 -5 -14 -18 -13 -18
8 -12 14 5 22 3 22 -4 0 -6 -4 -9 -9 -6 -5 3 -15 -2 -22 -11 -12 -15 -12 -16
1 -8 25 15 52 17 44 3 -5 -8 -1 -8 10 1 15 13 19 13 27 0 7 -12 9 -12 9 0 0 8
3 11 7 8 3 -4 12 -2 19 3 15 13 48 -16 37 -33 -5 -8 -2 -8 9 0 8 7 19 9 23 5
5 -4 5 -2 1 5 -6 11 20 12 63 1 7 -1 16 3 18 10 3 6 0 12 -7 12 -6 0 -8 -5 -4
-12 4 -7 3 -8 -4 -4 -6 4 -9 13 -6 21 4 8 11 12 17 8 5 -3 7 -1 3 5 -3 5 -3
12 1 15 5 2 3 2 -4 1 -7 -2 -15 2 -19 8 -4 6 -3 8 4 4 6 -3 13 3 17 14 4 11
11 17 17 14 7 -5 8 -2 2 7 -5 8 -7 22 -5 33 2 12 -1 16 -10 11 -8 -5 -10 -4
-5 3 4 6 14 8 23 5 12 -5 14 -3 8 8 -8 12 -6 12 8 0 10 -8 17 -9 17 -3 0 6 -8
15 -17 21 -16 9 -16 10 4 8 12 0 19 -5 16 -10 -3 -5 4 -6 15 -3 18 6 20 3 17
-15 -2 -12 -1 -18 3 -15 4 4 7 17 7 29 0 11 6 22 12 24 7 3 13 0 13 -7 0 -6
-4 -8 -10 -5 -6 3 -7 -1 -4 -10 6 -14 8 -14 19 1 11 16 13 16 24 -2 8 -13 11
-14 10 -4 -1 8 -1 27 0 42 1 21 5 25 24 22 19 -4 19 -3 3 4 -21 9 -30 38 -15
48 5 3 7 10 3 15 -3 5 -10 7 -15 3 -5 -3 -7 -10 -4 -15 4 -5 1 -9 -4 -9 -14 0
-14 13 1 28 9 9 7 13 -5 18 -15 5 -14 8 4 23 22 18 17 56 -7 47 -8 -3 -11 0
-7 10 3 8 12 13 19 10 8 -3 11 0 7 10 -3 10 -12 12 -27 8 -19 -6 -19 -5 4 15
l25 22 -25 -5 c-14 -3 -19 -3 -12 0 10 5 10 9 0 22 -7 9 -8 13 -2 9 7 -4 12 3
12 18 0 14 -5 28 -10 31 -5 3 -5 11 2 19 15 18 21 55 8 55 -5 0 -7 -7 -4 -16
3 -8 2 -13 -3 -10 -7 5 -7 24 -2 99 1 5 6 5 12 1 8 -4 7 -9 -2 -15 -10 -6 -10
-9 -2 -9 16 0 26 17 13 25 -6 4 -8 11 -5 16 3 5 -2 6 -11 2 -15 -5 -14 -3 2
23 17 26 17 27 1 15 -22 -17 -22 -3 0 21 13 15 14 19 3 16 -16 -3 -23 39 -9
48 15 9 10 24 -7 24 -9 0 -12 -5 -8 -12 4 -7 3 -8 -5 -4 -15 10 -5 26 17 27
11 0 12 3 5 6 -7 2 -13 15 -13 27 0 12 6 28 13 35 10 11 10 13 -1 7 -7 -5 -12
-1 -12 9 0 9 4 14 9 10 5 -3 13 0 17 6 4 8 3 9 -5 5 -17 -11 -25 22 -10 41 10
12 10 15 1 9 -6 -4 -12 -3 -12 3 0 5 5 13 11 16 7 5 5 13 -6 25 -9 10 -17 24
-19 32 -1 7 -6 20 -11 28 -8 13 -7 13 8 1 9 -7 15 -17 12 -21 -3 -5 -2 -11 2
-13 5 -3 8 14 8 38 0 28 -4 41 -12 38 -7 -3 -10 5 -9 21 2 13 0 30 -5 37 -9
15 -1 39 13 39 7 0 7 -4 0 -13 -6 -7 -7 -18 -2 -26 4 -8 6 -21 3 -30 -4 -14
-3 -14 5 -1 7 8 7 20 2 30 -6 10 -3 21 8 33 9 10 12 18 7 17 -20 -4 -35 0 -35
11 0 6 8 8 18 5 14 -5 14 -3 -2 9 -17 13 -18 17 -6 28 7 6 10 7 7 1 -3 -6 0
-11 7 -11 11 0 12 4 3 18 -8 13 -15 15 -23 8 -8 -7 -15 -6 -20 2 -4 7 -3 9 4
5 6 -3 14 -1 18 5 3 6 0 15 -7 20 -8 5 -9 9 -3 9 5 0 16 -6 23 -13 11 -10 11
-8 2 10 -7 15 -17 20 -29 17 -16 -5 -16 -5 1 6 9 6 21 9 26 6 4 -3 7 8 5 25
-3 22 0 28 9 23 8 -5 7 -2 -2 9 -15 19 -26 23 -15 5 4 -7 3 -8 -4 -4 -17 10
-15 26 2 26 8 0 18 5 22 11 4 7 0 9 -13 5 -13 -4 -20 -2 -20 8 0 9 4 13 9 10
4 -3 8 3 8 13 0 11 6 25 13 32 7 9 7 11 1 8 -7 -4 -15 0 -18 9 -4 9 -2 13 5 8
8 -4 9 1 4 16 -4 13 -3 20 2 17 5 -3 9 13 8 36 0 36 -3 42 -20 40 -11 -1 -14
0 -7 3 10 5 10 9 0 22 -10 13 -8 13 9 -1 14 -12 23 -15 28 -8 3 6 2 11 -4 11
-19 0 -34 40 -20 56 6 8 8 14 4 14 -4 0 -3 6 2 13 14 18 24 49 14 43 -5 -3
-11 1 -15 9 -3 8 0 17 6 21 7 4 8 3 4 -4 -4 -7 -2 -12 4 -12 7 0 10 6 7 14 -3
7 0 20 6 27 10 10 9 11 -3 2 -13 -10 -15 -3 -13 53 2 46 -1 63 -9 58 -7 -4 -8
-3 -4 5 11 16 29 2 21 -17 -3 -9 -3 -13 2 -9 13 14 12 67 -2 67 -7 0 -16 8
-20 18 -5 14 -4 15 6 5 15 -15 33 -17 24 -4 -3 6 3 14 12 20 16 9 16 10 -4 8
-12 0 -19 -5 -17 -9 8 -13 -3 -9 -14 5 -8 10 -6 13 10 14 12 1 26 7 32 14 8 9
8 10 -1 5 -7 -4 -13 -3 -13 1 0 5 6 15 13 22 10 11 10 13 0 7 -7 -4 -13 -2
-13 5 0 8 -5 7 -17 -2 -16 -13 -17 -12 -4 3 7 10 17 15 22 12 5 -3 9 0 9 5 0
6 -8 11 -17 12 -14 0 -15 2 -3 6 20 8 44 33 31 33 -5 0 -13 -4 -16 -10 -3 -5
-10 -10 -15 -10 -6 0 -2 9 7 20 19 21 29 65 13 55 -5 -3 -10 -1 -10 5 0 6 -4
9 -9 5 -5 -3 -12 -1 -15 4 -4 5 8 7 26 5 27 -4 30 -2 16 6 -20 13 -24 32 -5
25 8 -4 12 5 12 25 0 16 -3 30 -7 30 -5 0 -8 4 -8 10 0 5 8 7 18 4 13 -5 14
-4 3 4 -14 10 -24 75 -10 66 5 -3 6 -11 3 -17 -4 -7 -3 -8 1 -4 14 12 15 37 2
37 -8 0 -7 4 2 9 11 7 9 10 -8 16 -11 3 -21 15 -21 25 0 10 -5 22 -10 25 -6 4
-7 11 -4 17 5 7 2 8 -6 3 -10 -6 -12 -4 -7 9 4 9 3 15 -2 12 -5 -3 -14 1 -21
10 -7 8 -20 12 -28 9 -13 -5 -13 -3 -1 11 19 23 20 44 1 37 -11 -5 -13 -3 -7
7 5 9 4 11 -4 6 -6 -4 -8 -13 -5 -19 4 -7 3 -9 -1 -4 -5 4 -9 17 -10 28 -1 14
3 18 13 14 12 -4 13 -3 2 10 -7 8 -17 12 -23 8 -6 -4 -8 0 -4 10 4 11 1 17 -8
17 -8 0 -15 4 -15 8 0 14 -48 33 -56 21 -4 -7 -10 -7 -18 0 -9 7 -17 7 -26 -2
-10 -10 -12 -9 -7 6 4 11 3 16 -3 12 -6 -3 -10 -13 -10 -21 0 -8 -4 -14 -10
-14 -5 0 -7 8 -4 18 5 14 3 14 -10 -2 -12 -15 -16 -16 -16 -5 0 12 -2 12 -9 0
-5 -8 -16 -11 -26 -8 -9 4 -14 11 -11 16 7 10 -13 9 -31 -2 -6 -4 -18 -4 -27
-1 -9 3 -16 1 -16 -6 0 -6 4 -9 9 -5 5 3 12 2 15 -3 9 -15 -58 -8 -70 7 -9 11
-12 12 -19 1 -5 -9 -4 -11 3 -6 7 4 12 3 12 -2 0 -5 -11 -12 -25 -14 -20 -4
-23 -3 -14 8 14 18 -1 18 -23 0 -10 -7 -14 -17 -10 -21 4 -5 1 -5 -6 -1 -10 6
-10 11 -1 22 7 9 8 14 1 14 -6 0 -13 -4 -16 -9 -8 -13 -57 -11 -49 3 3 6 -4 2
-16 -8 -15 -14 -20 -15 -16 -5 4 11 -3 15 -29 15 -19 0 -33 -3 -30 -7 2 -4 -3
-10 -12 -13 -23 -9 -31 -7 -14 4 8 5 11 13 6 17 -4 4 -17 -3 -28 -17 -18 -22
-20 -22 -14 -4 4 14 2 21 -8 21 -9 0 -13 -4 -10 -9 3 -4 0 -8 -5 -8 -6 0 -11
4 -11 8 0 5 -7 9 -15 9 -12 0 -12 -3 -2 -16 10 -12 9 -13 -2 -7 -8 5 -17 3
-23 -5 -7 -10 -7 -7 -3 9 4 12 3 22 -2 21 -4 -1 -16 1 -26 6 -10 4 -21 5 -24
1 -4 -3 1 -6 11 -6 10 0 14 -5 10 -12 -5 -7 -2 -8 7 -3 8 5 10 4 6 0 -10 -12
-38 -15 -31 -4 8 14 -9 11 -36 -8 -25 -16 -25 -16 -7 3 9 12 17 25 17 30 0 5
-4 3 -8 -4 -5 -7 -22 -16 -40 -21 -25 -8 -30 -7 -25 6 5 13 3 13 -15 2 -11 -7
-18 -17 -15 -23 3 -5 1 -6 -6 -2 -9 6 -9 11 -1 21 8 10 5 13 -14 11 -15 0 -21
-5 -16 -11 6 -7 2 -11 -9 -11 -12 0 -17 5 -13 15 3 9 1 12 -6 7 -7 -4 -12 -2
-12 3 0 6 -9 2 -21 -10 l-21 -21 -26 24 c-14 12 -23 19 -20 13 3 -5 -6 -19
-21 -29 -14 -11 -20 -13 -13 -6 20 23 14 35 -8 15 -16 -14 -19 -15 -15 -4 4
10 0 16 -9 16 -8 0 -13 -4 -10 -9 3 -4 0 -8 -5 -8 -6 0 -11 4 -11 8 0 5 -7 9
-15 9 -13 0 -12 -4 2 -21 17 -20 17 -20 1 -7 -15 11 -21 11 -35 0 -15 -11 -16
-11 -5 1 13 16 16 31 5 28 -5 0 -16 2 -26 7 -10 4 -21 5 -24 1 -4 -3 1 -6 11
-6 10 0 14 -5 10 -12 -5 -7 -2 -8 7 -3 8 5 10 4 6 0 -10 -12 -38 -15 -31 -4 8
14 -9 11 -36 -8 -25 -16 -25 -16 -7 3 9 12 17 25 17 30 0 5 -4 3 -8 -4 -5 -7
-22 -16 -40 -21 -25 -8 -30 -7 -25 6 5 13 3 13 -15 2 -11 -7 -18 -17 -15 -23
3 -5 1 -6 -6 -2 -9 6 -9 11 0 22 7 9 8 14 1 14 -6 0 -13 -4 -16 -9 -8 -13 -57
-11 -49 3 3 6 -4 2 -16 -8 -15 -14 -20 -15 -16 -5 4 11 -3 15 -29 15 -19 0
-33 -3 -30 -7 2 -4 -3 -10 -12 -13 -23 -9 -31 -7 -14 4 8 5 11 13 6 17 -4 4
-17 -3 -28 -17 -18 -22 -20 -22 -14 -4 4 14 2 21 -8 21 -9 0 -13 -4 -10 -9 3
-4 0 -8 -5 -8 -6 0 -11 4 -11 8 0 5 -7 9 -15 9 -12 0 -12 -3 -2 -16 10 -12 9
-13 -2 -7 -8 5 -17 3 -23 -5 -7 -10 -7 -7 -3 9 4 12 3 22 -2 21 -4 -1 -16 1
-26 6 -10 4 -21 5 -24 1 -4 -3 1 -6 11 -6 10 0 14 -5 10 -12 -5 -7 -2 -8 7 -3
8 5 10 4 6 0 -10 -12 -38 -15 -31 -4 8 14 -9 11 -36 -8 -25 -16 -25 -16 -7 3
9 12 17 25 17 30 0 5 -4 3 -8 -4 -5 -7 -22 -16 -40 -21 -25 -8 -30 -7 -25 6 5
13 3 13 -15 2 -11 -7 -18 -17 -15 -23 3 -5 1 -6 -6 -2 -9 6 -9 11 -1 21 8 10
5 13 -14 11 -15 0 -21 -5 -16 -11 6 -7 2 -11 -9 -11 -12 0 -17 5 -13 15 3 9 1
12 -5 8 -6 -4 -14 -1 -17 5 -3 7 -3 2 1 -12 5 -22 4 -23 -10 -11 -9 7 -15 17
-12 21 3 5 0 12 -6 16 -8 4 -9 3 -5 -4 4 -7 2 -12 -3 -12 -6 0 -11 -5 -11 -11
0 -5 4 -8 8 -5 5 3 9 -2 9 -11 0 -11 -7 -8 -22 11 -14 18 -25 24 -29 17 -10
-16 -26 -14 -20 3 3 8 1 17 -5 21 -6 3 -9 0 -5 -8 3 -8 0 -18 -7 -22 -19 -12
-73 -14 -86 -3 -9 7 -13 7 -13 -1 0 -6 -4 -11 -10 -11 -5 0 -9 3 -7 8 2 7 -6
12 -24 12 -5 0 -7 -5 -3 -11 3 -6 -5 -4 -19 6 -17 11 -27 13 -32 5 -5 -8 -11
-8 -20 0 -8 7 -20 8 -26 4 -9 -5 -10 -2 -6 9 3 10 2 17 -3 17 -6 0 -10 -6 -10
-14 0 -8 -5 -18 -12 -22 -7 -4 -8 -3 -4 4 11 19 -3 33 -22 23 -11 -6 -25 -5
-36 1 -15 9 -18 8 -14 -4 4 -8 0 -15 -8 -15 -7 0 -11 3 -9 7 5 8 -31 30 -39
23z m2225 -46 c-13 -13 -26 -3 -16 12 3 6 11 8 17 5 6 -4 6 -10 -1 -17z m144
2 c-4 -5 -12 -9 -18 -8 -9 0 -8 2 1 6 6 2 9 10 6 15 -4 7 -2 8 5 4 6 -4 9 -12
6 -17z m49 5 c9 -8 16 -21 16 -27 0 -7 -5 -4 -11 5 -5 10 -16 15 -24 12 -15
-6 -21 7 -8 19 9 9 9 9 27 -9z m-2494 -14 c0 -5 -2 -10 -4 -10 -3 0 -8 5 -11
10 -3 6 -1 10 4 10 6 0 11 -4 11 -10z m1011 -13 c-10 -9 -11 -8 -5 6 3 10 9
15 12 12 3 -3 0 -11 -7 -18z m546 1 c-3 -8 -6 -5 -6 6 -1 11 2 17 5 13 3 -3 4
-12 1 -19z m414 -1 c-10 -9 -11 -8 -5 6 3 10 9 15 12 12 3 -3 0 -11 -7 -18z
m619 -81 c0 -2 -11 -11 -25 -20 -28 -19 -33 -15 -9 8 14 15 34 22 34 12z m19
-50 c10 -12 9 -14 -6 -11 -10 2 -25 4 -33 5 -10 1 -9 4 5 10 11 5 21 9 21 9 1
1 7 -5 13 -13z m49 -240 c-7 -8 -15 -12 -17 -11 -5 6 10 25 20 25 5 0 4 -6 -3
-14z m6 -105 c3 -5 0 -14 -7 -19 -10 -8 -13 -6 -14 9 -2 19 11 26 21 10z m-11
-126 c-3 -9 -8 -14 -10 -11 -3 3 -2 9 2 15 9 16 15 13 8 -4z m-2719 -3 c3 -5
-1 -9 -9 -9 -8 0 -12 4 -9 9 3 4 7 8 9 8 2 0 6 -4 9 -8z m16 -218 c0 -2 -7 -4
-15 -4 -8 0 -15 4 -15 10 0 5 7 7 15 4 8 -4 15 -8 15 -10z m2680 -289 c0 -1
-10 -10 -22 -21 -17 -14 -20 -15 -9 -2 7 9 10 22 6 27 -3 7 0 8 9 5 9 -3 16
-7 16 -9z m-19 -72 c13 -16 12 -17 -3 -4 -17 13 -22 21 -14 21 2 0 10 -8 17
-17z m9 -139 c0 -8 -19 -13 -24 -6 -3 5 1 9 9 9 8 0 15 -2 15 -3z m-3 -290
c-3 -3 -12 -4 -19 -1 -8 3 -5 6 6 6 11 1 17 -2 13 -5z m7 -105 c-3 -5 -10 -7
-15 -3 -5 3 -7 10 -3 15 3 5 10 7 15 3 5 -3 7 -10 3 -15z m-15 -50 c-5 -10
-12 -19 -15 -19 -2 0 0 8 5 18 7 13 6 23 -2 32 -10 12 -9 12 5 1 14 -10 15
-18 7 -32z m-2664 -29 c3 -6 -1 -7 -9 -4 -18 7 -21 14 -7 14 6 0 13 -4 16 -10z
m-10 -88 c-3 -3 -11 0 -18 7 -9 10 -8 11 6 5 10 -3 15 -9 12 -12z m-47 -504
c-10 -7 -10 -11 0 -15 6 -2 12 -9 12 -14 0 -5 -8 -4 -19 3 -15 9 -19 24 -12
45 1 1 8 0 17 -4 13 -5 13 -8 2 -15z m2772 -6 c0 -13 -12 -22 -22 -16 -10 6
-1 24 13 24 5 0 9 -4 9 -8z m-2786 -52 c-6 -6 -10 -3 -10 10 0 13 4 16 10 10
7 -7 7 -13 0 -20z m43 -77 c-4 -3 1 -16 10 -27 18 -21 18 -21 -4 -2 -20 16
-23 36 -6 36 4 0 3 -3 0 -7z m2740 1 c-3 -3 -12 -4 -19 -1 -8 3 -5 6 6 6 11 1
17 -2 13 -5z m-12 -34 c3 -5 1 -10 -4 -10 -6 0 -11 5 -11 10 0 6 2 10 4 10 3
0 8 -4 11 -10z m-150 -88 c-3 -3 -11 0 -18 7 -9 10 -8 11 6 5 10 -3 15 -9 12
-12z m-1739 -37 c-3 -24 -12 -27 -27 -8 -8 9 -9 14 -2 10 6 -4 14 -3 18 3 9
14 14 12 11 -5z m984 0 c0 -8 -2 -15 -4 -15 -2 0 -6 7 -10 15 -3 8 -1 15 4 15
6 0 10 -7 10 -15z m-1280 -25 c6 -11 8 -20 6 -20 -3 0 -10 9 -16 20 -6 11 -8
20 -6 20 3 0 10 -9 16 -20z m1467 -12 c-3 -8 -6 -5 -6 6 -1 11 2 17 5 13 3 -3
4 -12 1 -19z m73 1 c0 -5 -4 -9 -8 -9 -5 0 -9 7 -9 15 0 8 4 12 9 9 4 -3 8 -9
8 -15z m-1880 7 c0 -3 -4 -8 -10 -11 -5 -3 -10 -1 -10 4 0 6 5 11 10 11 6 0
10 -2 10 -4z m27 -18 c-3 -8 -6 -5 -6 6 -1 11 2 17 5 13 3 -3 4 -12 1 -19z
m1903 16 c0 -8 -19 -13 -24 -6 -3 5 1 9 9 9 8 0 15 -2 15 -3z m239 -8 c9 -11
9 -16 0 -22 -8 -4 -9 -3 -5 4 4 7 2 12 -3 12 -6 0 -11 5 -11 10 0 14 5 13 19
-4z m51 -14 c0 -5 -7 -9 -15 -9 -8 0 -12 4 -9 9 3 4 9 8 15 8 5 0 9 -4 9 -8z
m100 -12 c0 -5 -2 -10 -4 -10 -3 0 -8 5 -11 10 -3 6 -1 10 4 10 6 0 11 -4 11
-10z m-30 -4 c0 -3 -4 -8 -10 -11 -5 -3 -10 -1 -10 4 0 6 5 11 10 11 6 0 10
-2 10 -4z"/>
<path d="M425 2889 c-11 -16 -1 -19 13 -3 7 8 8 14 3 14 -5 0 -13 -5 -16 -11z"/>
<path d="M480 2891 c0 -7 -5 -9 -12 -5 -7 5 -8 3 -3 -5 5 -9 10 -10 18 -2 6 6
8 14 4 18 -4 3 -7 1 -7 -6z"/>
<path d="M521 2884 c0 -11 3 -14 6 -6 3 7 2 16 -1 19 -3 4 -6 -2 -5 -13z"/>
<path d="M544 2878 c3 -15 26 -23 26 -8 0 6 -4 9 -9 6 -5 -4 -12 -1 -14 4 -3
6 -4 5 -3 -2z"/>
<path d="M591 2876 c-10 -11 -9 -14 1 -12 14 2 23 15 15 22 -2 2 -10 -2 -16
-10z"/>
<path d="M2350 2885 c0 -2 6 -8 13 -14 10 -8 14 -7 14 2 0 8 -6 14 -14 14 -7
0 -13 -1 -13 -2z"/>
<path d="M875 2870 c-3 -5 -1 -10 4 -10 6 0 11 5 11 10 0 6 -2 10 -4 10 -3 0
-8 -4 -11 -10z"/>
<path d="M1355 2870 c-3 -5 -1 -10 4 -10 6 0 11 5 11 10 0 6 -2 10 -4 10 -3 0
-8 -4 -11 -10z"/>
<path d="M1835 2870 c-3 -5 -1 -10 4 -10 6 0 11 5 11 10 0 6 -2 10 -4 10 -3 0
-8 -4 -11 -10z"/>
<path d="M2820 2641 c0 -10 19 -25 25 -20 1 2 -3 10 -11 17 -8 7 -14 8 -14 3z"/>
<path d="M60 1916 c0 -2 9 -6 20 -9 11 -3 18 -1 14 4 -5 9 -34 13 -34 5z"/>
<path d="M2782 1885 c4 -4 3 -14 -4 -22 -8 -10 -8 -17 0 -25 7 -7 12 -10 13
-7 6 30 4 51 -5 56 -6 3 -8 3 -4 -2z"/>
<path d="M40 1016 c0 -2 7 -7 16 -10 8 -3 12 -2 9 4 -6 10 -25 14 -25 6z"/>
<path d="M2783 975 c0 -8 4 -12 9 -9 5 3 6 10 3 15 -9 13 -12 11 -12 -6z"/>
<path d="M2783 885 c0 -8 4 -12 9 -9 5 3 6 10 3 15 -9 13 -12 11 -12 -6z"/>
<path d="M37 739 c7 -7 15 -10 18 -7 3 3 -2 9 -12 12 -14 6 -15 5 -6 -5z"/>
<path d="M2787 717 c-3 -8 1 -14 8 -14 7 0 11 6 8 14 -3 7 -6 13 -8 13 -2 0
-5 -6 -8 -13z"/>
<path d="M2791 636 c-9 -10 -8 -15 2 -19 8 -3 13 3 13 14 0 23 0 23 -15 5z"/>
<path d="M2806 398 c3 -4 9 -8 15 -8 5 0 9 4 9 8 0 5 -7 9 -15 9 -8 0 -12 -4
-9 -9z"/>
<path d="M2670 199 c0 -5 5 -7 10 -4 6 3 10 8 10 11 0 2 -4 4 -10 4 -5 0 -10
-5 -10 -11z"/>
<path d="M178 173 c7 -3 16 -2 19 1 4 3 -2 6 -13 5 -11 0 -14 -3 -6 -6z"/>
<path d="M995 139 c-4 -6 -4 -13 -1 -16 3 -4 6 -1 6 6 0 7 5 9 12 5 7 -4 8 -3
4 4 -9 15 -13 15 -21 1z"/>
<path d="M1030 141 c0 -6 4 -13 10 -16 6 -3 7 1 4 9 -7 18 -14 21 -14 7z"/>
<path d="M1670 142 c0 -5 7 -9 15 -9 8 0 12 4 9 9 -7 10 -24 10 -24 0z"/>
<path d="M840 130 c-9 -6 -10 -10 -3 -10 6 0 15 5 18 10 8 12 4 12 -15 0z"/>
<path d="M756 122 c-3 -5 1 -9 9 -9 8 0 12 4 9 9 -3 4 -7 8 -9 8 -2 0 -6 -4
-9 -8z"/>
<path d="M2325 100 c-3 -5 -1 -10 4 -10 6 0 11 5 11 10 0 6 -2 10 -4 10 -3 0
-8 -4 -11 -10z"/>
<path d="M2506 77 c3 -10 9 -15 12 -12 3 3 0 11 -7 18 -10 9 -11 8 -5 -6z"/>
</g>
</svg>
